:version 1.10
:name ASF
:units
  mass 1
  length 1
  angle deg
:documentation
  ASF file generated by Kaydara
:root
  axis xyz
  order  tx ty tz rx ry rz
  position 0 0 0
  orientation 0 0 0
:bonedata
  begin
    id 1
    name RightUpLegDummy
    direction -1 2.30186e-007 8.31532e-007
    length 4.46685
    axis 0 0 0 xyz
  end
  begin
    id 2
    name RightUpLeg
    direction -2.30187e-007 -1 1.24343e-010
    length 16.4045
    axis -3.49089 -0.000906625 0.000286804 xyz
    dof rx ry rz
  end
  begin
    id 3
    name RightLeg
    direction -2.30181e-007 -1 -4.17157e-009
    length 17.5097
    axis 3.68512 0.0193738 -0.131023 xyz
    dof rx ry rz
  end
  begin
    id 4
    name RightFoot
    direction 8.31421e-007 -4.51202e-011 1
    length 6.49508
    axis 4.81691e-005 -0.120479 -0.188788 xyz
    dof rx ry rz
  end
  begin
    id 5
    name RightToes
    direction 0.00124746 -0.014064 0.9999
    length 3.85082
    axis 0.000481921 0.542163 -0.142578 xyz
    dof rx ry rz
  end
  begin
    id 6
    name SpineDummy
    direction 0.0717043 0.9409 -0.331007
    length 10.0032
    axis 0 0 0 xyz
  end
  begin
    id 7
    name Spine
    direction 2.30186e-007 1 4.58806e-011
    length 9.84055
    axis -0.001389 0.000121418 2.40972e-006 xyz
    dof rx ry rz
  end
  begin
    id 8
    name Spine1
    direction 0 0 0
    length 0
    axis -0.001389 0.000121451 1.30017e-006 xyz
    dof rx ry rz
  end
  begin
    id 9
    name HEadDummy
    direction -0.00347485 0.950688 -0.310128
    length 8.00997
    axis -0.001389 0.000121451 1.30017e-006 xyz
  end
  begin
    id 10
    name HEad
    direction -0.0222688 0.980941 0.193023
    length 5.12695
    axis -0.001389 0.000121451 1.30017e-006 xyz
    dof rx ry rz
  end
  begin
    id 11
    name LeftShoulder1Dummy
    direction 0.988871 0.146793 -0.0242004
    length 3.5792
    axis -0.001389 0.000121451 1.30017e-006 xyz
  end
  begin
    id 12
    name LeftShoulder1
    direction 0.993832 0.108932 0.020779
    length 4.16823
    axis -0.001389 0.000121451 1.30017e-006 xyz
    dof rx ry rz
  end
  begin
    id 13
    name LeftArm
    direction 1 3.44807e-006 -8.31404e-007
    length 9.91437
    axis -23.1894 0.134784 0.967509 xyz
    dof rx ry rz
  end
  begin
    id 14
    name LeftForeArm
    direction 1 3.44842e-006 -8.31581e-007
    length 9.08575
    axis -9.91835 -0.06569 -0.177793 xyz
    dof rx ry rz
  end
  begin
    id 15
    name LeftHand
    direction 0.992938 -0.0411636 0.11126
    length 5.32135
    axis -0.00960232 -0.00340091 0.185173 xyz
    dof rx ry rz
  end
  begin
    id 16
    name RightShoulderDummy
    direction -0.988871 0.146793 -0.0241962
    length 3.5792
    axis -0.001389 0.000121451 1.30017e-006 xyz
  end
  begin
    id 17
    name RightShoulder
    direction -0.993832 0.108933 0.0207785
    length 4.16823
    axis 0.215806 0.000203643 -0.0068026 xyz
    dof rx ry rz
  end
  begin
    id 18
    name RightArm
    direction -1 3.90912e-006 8.31284e-007
    length 9.91437
    axis -23.2009 -0.134239 -0.964101 xyz
    dof rx ry rz
  end
  begin
    id 19
    name RightForeArm
    direction -1 3.90882e-006 8.31502e-007
    length 9.08575
    axis -9.92322 0.0658061 0.178867 xyz
    dof rx ry rz
  end
  begin
    id 20
    name RightHand
    direction -0.992843 -0.0414603 0.112003
    length 5.28593
    axis -0.00960638 0.00330671 -0.185228 xyz
    dof rx ry rz
  end
  begin
    id 21
    name LeftUpLegDummy
    direction 1 -2.30186e-007 -8.31532e-007
    length 4.46685
    axis 0 0 0 xyz
  end
  begin
    id 22
    name LeftUpLeg
    direction -2.30187e-007 -1 6.00931e-010
    length 16.4045
    axis -3.48766 0.00143442 -0.000524262 xyz
    dof rx ry rz
  end
  begin
    id 23
    name LeftLeg
    direction -2.30187e-007 -1 1.6669e-009
    length 17.5097
    axis 3.68178 -0.00654042 -0.000285133 xyz
    dof rx ry rz
  end
  begin
    id 24
    name LeftFoot
    direction 8.31532e-007 -4.54478e-011 1
    length 6.49508
    axis 1.87233e-006 4.66016e-005 -8.6538e-006 xyz
    dof rx ry rz
  end
  begin
    id 25
    name LeftToes
    direction 0.00818058 -0.00485161 0.999955
    length 3.85048
    axis 1.06247e-005 4.65869e-005 -8.65513e-006 xyz
    dof rx ry rz
  end
:hierarchy
  begin
    root RightUpLegDummy SpineDummy LeftUpLegDummy
    RightUpLegDummy RightUpLeg
    RightUpLeg RightLeg
    RightLeg RightFoot
    RightFoot RightToes
    SpineDummy Spine
    Spine Spine1
    Spine1 HEadDummy LeftShoulder1Dummy RightShoulderDummy
    HEadDummy HEad
    LeftShoulder1Dummy LeftShoulder1
    LeftShoulder1 LeftArm
    LeftArm LeftForeArm
    LeftForeArm LeftHand
    RightShoulderDummy RightShoulder
    RightShoulder RightArm
    RightArm RightForeArm
    RightForeArm RightHand
    LeftUpLegDummy LeftUpLeg
    LeftUpLeg LeftLeg
    LeftLeg LeftFoot
    LeftFoot LeftToes
  end

:SAMPLES-PER-SECOND 30
:FULLY-SPECIFIED
:DEGREES
160
root  -69.0389 31.8992 28.4442 -134.89 83.2383 -145.783
RightUpLeg  -32.5163 -6.10552 -9.57611
RightLeg  46.0809 3.90104 3.51982
RightFoot  -4.05318 -0.014376 -0.0287238
RightToes  -50.716 -0.309233 -0.367322
Spine  9.83784 -1.07482 1.11296
Spine1  17.4019 -1.04121 -1.10952
HEad  25.0983 10.0037 5.62195
LeftShoulder1  0 -2.42657e-020 -4.95415e-022
LeftArm  -10.9177 -7.38447 -86.807
LeftForeArm  58.6097 -49.9942 -12.1033
LeftHand  -1.19303 -8.67274 15.2781
RightShoulder  0 2.42657e-020 1.07489e-018
RightArm  -28.7423 8.95987 85.8913
RightForeArm  29.8975 30.0116 5.84068
RightHand  0.44426 22.8719 2.56662
LeftUpLeg  -24.1462 17.0663 5.15611
LeftLeg  43.7651 6.80138 5.68571
LeftFoot  -16.4966 -0.418277 -2.88482
LeftToes  -19.9996 8.63562e-007 1.17448e-007
161
root  -69.1898 30.9103 29.3883 -138.154 83.2352 -149.969
RightUpLeg  -34.9884 -3.08919 -15.7833
RightLeg  41.4692 1.1216 0.844081
RightFoot  -7.66673 -0.0087753 0.246606
RightToes  -43.8967 -0.250336 -0.336059
Spine  11.5654 -2.06374 1.11146
Spine1  19.3767 -4.2661 0.444471
HEad  20.9621 10.7262 4.55327
LeftShoulder1  0 -2.42657e-020 -4.95415e-022
LeftArm  -9.31425 -17.4071 -88.1353
LeftForeArm  56.8648 -34.109 -6.81417
LeftHand  -0.945009 -9.5498 10.9149
RightShoulder  0 2.42657e-020 1.07489e-018
RightArm  -28.9866 13.5201 87.2007
RightForeArm  27.7949 30.1791 5.88144
RightHand  0.508391 22.6516 2.90872
LeftUpLeg  -30.4956 19.0014 5.99343
LeftLeg  53.0698 4.84807 5.62084
LeftFoot  -18.2161 -0.496755 -3.09783
LeftToes  -21.6814 8.63562e-007 1.17448e-007
162
root  -69.2693 29.9365 30.3845 -144.669 83.1678 -157.867
RightUpLeg  -37.5159 0.476644 -22.4513
RightLeg  36.9059 1.67104 1.07668
RightFoot  -9.39892 -0.00535565 0.312422
RightToes  -44.9182 -0.258916 -0.341186
Spine  13.1054 -2.40618 0.934492
Spine1  20.9479 -6.45367 2.48795
HEad  16.5978 8.8364 4.83507
LeftShoulder1  0 -2.42657e-020 -4.95415e-022
LeftArm  -8.46249 -26.8719 -90.7672
LeftForeArm  58.1548 -23.2961 -4.3055
LeftHand  -0.120013 -9.64783 1.05281
RightShoulder  0 2.42657e-020 1.07489e-018
RightArm  -31.4326 18.0174 87.4673
RightForeArm  25.2964 28.7257 5.54184
RightHand  0.643269 22.5098 3.60268
LeftUpLeg  -35.7138 22.0032 6.43656
LeftLeg  59.3083 2.60416 3.78994
LeftFoot  -19.5971 -0.495345 -2.8676
LeftToes  -24.0841 8.63562e-007 1.17448e-007
163
root  -69.3057 29.0532 31.5002 -155.392 82.9478 -170.248
RightUpLeg  -40.342 2.21078 -27.9672
RightLeg  35.2572 0.753868 0.44816
RightFoot  -9.07028 0.0294686 0.749126
RightToes  -45.6156 -0.264825 -0.344597
Spine  13.8801 -2.14945 0.744363
Spine1  21.5176 -6.76136 3.40775
HEad  14.8645 6.70906 5.10268
LeftShoulder1  0 -2.42657e-020 -4.95415e-022
LeftArm  -9.70671 -34.1932 -93.9518
LeftForeArm  60.5299 -14.1732 -2.50284
LeftHand  1.25211 -11.6528 -12.6017
RightShoulder  0 2.42657e-020 1.07489e-018
RightArm  -35.1008 21.8917 86.3708
RightForeArm  22.4194 25.1868 4.7523
RightHand  1.0421 22.3283 5.64831
LeftUpLeg  -39.5944 24.102 6.68071
LeftLeg  62.8498 0.748863 1.24268
LeftFoot  -20.5495 -0.415765 -2.29327
LeftToes  -27.5748 8.63562e-007 1.17448e-007
164
root  -69.3462 28.4265 32.8662 -163.705 81.4477 179.689
RightUpLeg  -42.7824 -4.17023 -27.7149
RightLeg  37.5325 -0.564848 -0.397257
RightFoot  -7.16115 0.0498234 1.17388
RightToes  -51.9145 -0.31995 -0.372082
Spine  14.1359 -1.63265 0.963541
Spine1  21.7535 -5.40317 3.21974
HEad  13.9215 5.60973 3.77707
LeftShoulder1  0 -2.42657e-020 -4.95415e-022
LeftArm  -10.26 -36.0583 -95.4972
LeftForeArm  64.9814 -11.4406 -1.98759
LeftHand  1.57638 -12.3763 -14.8405
RightShoulder  0 2.42657e-020 1.07489e-018
RightArm  -41.7153 25.2631 84.547
RightForeArm  22.703 20.3582 3.74725
RightHand  1.30056 21.9331 7.07638
LeftUpLeg  -43.7391 25.3527 7.18291
LeftLeg  65.2686 -0.51497 -0.964701
LeftFoot  -19.0961 -0.284377 -1.69055
LeftToes  -31.44 8.63562e-007 1.17448e-007
165
root  -69.3195 28.1173 34.4463 -164.257 80.8794 177.88
RightUpLeg  -47.5663 -12.7403 -23.1932
RightLeg  42.0992 4.78042 3.75556
RightFoot  0.336452 -0.00243713 1.20509
RightToes  -58.6227 -0.38159 -0.394514
Spine  14.8272 -0.515566 1.41832
Spine1  22.8216 -2.96271 3.59246
HEad  11.8626 4.07273 2.02635
LeftShoulder1  0 -2.42657e-020 -4.95415e-022
LeftArm  -8.55904 -35.6064 -95.5323
LeftForeArm  64.6646 -13.4089 -2.35085
LeftHand  1.15488 -12.6889 -10.7346
RightShoulder  0 2.42657e-020 1.07489e-018
RightArm  -52.164 29.2197 81.3275
RightForeArm  26.1125 15.391 2.77877
RightHand  0.912307 21.0432 5.28072
LeftUpLeg  -45.9988 26.084 9.17007
LeftLeg  65.5568 -0.926725 -1.74623
LeftFoot  -16.2633 -0.247133 -1.72948
LeftToes  -34.7463 8.63562e-007 1.17448e-007
166
root  -69.294 28.1409 35.9372 -161.977 80.5717 178.641
RightUpLeg  -53.6487 -17.1027 -18.3501
RightLeg  48.3779 9.02785 8.78887
RightFoot  2.18433 -0.0242494 1.64896
RightToes  -59.6794 -0.391522 -0.397383
Spine  15.4663 0.504121 2.00783
Spine1  23.9684 -0.690162 4.10651
HEad  9.29668 3.06793 0.365408
LeftShoulder1  0 -2.42657e-020 -4.95415e-022
LeftArm  -6.97177 -33.6823 -93.8275
LeftForeArm  58.92 -17.3738 -3.11457
LeftHand  0.594665 -12.2124 -5.9277
RightShoulder  0 2.42657e-020 1.07489e-018
RightArm  -62.5778 32.4816 76.7593
RightForeArm  28.611 11.21 2.00072
RightHand  0.557305 20.1119 3.51304
LeftUpLeg  -46.9299 25.393 11.3579
LeftLeg  63.2639 -0.56467 -0.973579
LeftFoot  -13.0833 -0.244843 -2.13493
LeftToes  -37.1565 8.63562e-007 1.17448e-007
